<mxfile host="app.diagrams.net" modified="2024-04-17T17:46:26.997Z" agent="Mozilla/5.0 (Windows NT 10.0; Win64; x64) AppleWebKit/537.36 (KHTML, like Gecko) Chrome/123.0.0.0 Safari/537.36" version="24.2.5" etag="41wIUuqmWiGMOi5QCvy5" type="github">
  <diagram name="Сторінка-1" id="-aMKNxU6E9L7MTQbwJhd">
    <mxGraphModel>
      <root>
        <mxCell id="0" />
        <mxCell id="1" parent="0" />
      </root>
    </mxGraphModel>
  </diagram>
</mxfile>
